<?xml version="1.0" encoding="UTF-8" standalone="no"?>
<!DOCTYPE svg PUBLIC "-//W3C//DTD SVG 20010904//EN"
              "http://www.w3.org/TR/2001/REC-SVG-20010904/DTD/svg10.dtd">

<svg xmlns="http://www.w3.org/2000/svg"
     width="53.5094mm" height="48.6623mm"
     viewBox="0 0 2528 2299">
  <path id="Selection"
        fill="#FFFFFF" stroke="black" stroke-width="0"
        d="M 1260.00,1321.00
           C 1259.09,1325.87 1253.72,1338.73 1251.60,1344.00
             1251.60,1344.00 1235.40,1384.00 1235.40,1384.00
             1235.40,1384.00 1204.38,1455.00 1204.38,1455.00
             1204.38,1455.00 1164.26,1541.00 1164.26,1541.00
             1139.59,1591.64 1114.24,1642.32 1085.86,1691.00
             1047.95,1756.01 1007.25,1819.42 963.96,1881.00
             963.96,1881.00 899.47,1969.00 899.47,1969.00
             865.03,2014.92 829.51,2060.32 792.27,2104.00
             747.53,2156.48 690.19,2227.29 633.00,2265.00
             610.54,2279.81 574.50,2299.12 547.00,2297.96
             487.42,2295.46 446.70,2248.56 408.91,2208.00
             408.91,2208.00 341.91,2136.00 341.91,2136.00
             341.91,2136.00 304.75,2095.00 304.75,2095.00
             304.75,2095.00 268.01,2052.00 268.01,2052.00
             235.26,2010.28 202.66,1961.79 175.81,1916.00
             111.01,1805.48 58.85,1677.32 31.51,1552.00
             31.51,1552.00 16.08,1471.00 16.08,1471.00
             16.08,1471.00 16.08,1464.00 16.08,1464.00
             16.08,1464.00 13.83,1448.00 13.83,1448.00
             13.83,1448.00 11.06,1431.00 11.06,1431.00
             11.06,1431.00 11.06,1422.00 11.06,1422.00
             11.06,1422.00 9.00,1412.00 9.00,1412.00
             9.00,1412.00 9.00,1404.00 9.00,1404.00
             9.00,1404.00 6.94,1394.00 6.94,1394.00
             6.94,1394.00 6.94,1385.00 6.94,1385.00
             6.94,1385.00 5.04,1376.00 5.04,1376.00
             5.04,1376.00 5.04,1367.00 5.04,1367.00
             5.04,1367.00 3.04,1354.00 3.04,1354.00
             3.04,1354.00 3.04,1344.00 3.04,1344.00
             3.04,1344.00 2.00,1334.00 2.00,1334.00
             2.00,1334.00 0.00,1302.00 0.00,1302.00
             0.00,1302.00 0.00,1232.00 0.00,1232.00
             0.00,1232.00 1.92,1213.00 1.92,1213.00
             1.92,1213.00 1.92,1202.00 1.92,1202.00
             1.92,1202.00 2.96,1192.00 2.96,1192.00
             2.96,1192.00 2.96,1179.00 2.96,1179.00
             2.96,1179.00 5.00,1153.00 5.00,1153.00
             5.00,1153.00 7.00,1139.00 7.00,1139.00
             7.00,1139.00 7.00,1130.00 7.00,1130.00
             7.00,1130.00 8.83,1121.00 8.83,1121.00
             8.83,1121.00 11.30,1098.00 11.30,1098.00
             11.30,1098.00 15.70,1072.00 15.70,1072.00
             15.70,1072.00 18.32,1052.00 18.32,1052.00
             30.53,977.31 51.85,895.79 78.78,825.00
             78.78,825.00 113.54,740.00 113.54,740.00
             173.63,606.77 258.80,484.13 360.04,379.00
             360.04,379.00 394.00,345.96 394.00,345.96
             453.04,289.49 517.01,239.70 586.00,195.95
             669.05,143.27 760.48,98.77 854.00,68.12
             854.00,68.12 874.00,61.18 874.00,61.18
             911.52,49.22 949.51,38.82 988.00,30.64
             988.00,30.64 1037.00,20.37 1037.00,20.37
             1037.00,20.37 1069.00,15.56 1069.00,15.56
             1069.00,15.56 1095.00,11.00 1095.00,11.00
             1095.00,11.00 1103.00,11.00 1103.00,11.00
             1103.00,11.00 1111.00,9.06 1111.00,9.06
             1111.00,9.06 1119.00,9.06 1119.00,9.06
             1127.94,7.93 1125.29,7.13 1137.00,7.00
             1137.00,7.00 1153.00,5.09 1153.00,5.09
             1153.00,5.09 1174.00,3.83 1174.00,3.83
             1174.00,3.83 1194.00,2.00 1194.00,2.00
             1194.00,2.00 1210.00,2.00 1210.00,2.00
             1210.00,2.00 1243.00,0.00 1243.00,0.00
             1243.00,0.00 1281.00,0.00 1281.00,0.00
             1281.00,0.00 1313.00,2.00 1313.00,2.00
             1313.00,2.00 1332.00,2.00 1332.00,2.00
             1332.00,2.00 1364.00,5.04 1364.00,5.04
             1364.00,5.04 1374.00,5.04 1374.00,5.04
             1374.00,5.04 1386.00,7.04 1386.00,7.04
             1386.00,7.04 1396.00,7.04 1396.00,7.04
             1396.00,7.04 1405.00,8.96 1405.00,8.96
             1405.00,8.96 1413.00,8.96 1413.00,8.96
             1413.00,8.96 1422.00,10.70 1422.00,10.70
             1422.00,10.70 1431.00,11.30 1431.00,11.30
             1431.00,11.30 1470.00,17.68 1470.00,17.68
             1470.00,17.68 1477.00,18.37 1477.00,18.37
             1477.00,18.37 1543.00,31.36 1543.00,31.36
             1543.00,31.36 1568.00,37.50 1568.00,37.50
             1598.64,44.57 1629.04,53.62 1659.00,63.18
             1659.00,63.18 1726.00,87.39 1726.00,87.39
             1726.00,87.39 1747.00,95.42 1747.00,95.42
             1834.88,132.13 1910.49,172.92 1989.00,227.02
             2117.36,315.49 2226.12,430.15 2313.26,559.00
             2313.26,559.00 2337.37,597.00 2337.37,597.00
             2353.51,622.73 2369.32,649.09 2383.44,676.00
             2383.44,676.00 2397.26,705.00 2397.26,705.00
             2417.38,746.31 2435.25,788.78 2450.86,832.00
             2473.03,893.38 2491.43,955.86 2503.46,1020.00
             2503.46,1020.00 2507.68,1041.00 2507.68,1041.00
             2507.68,1041.00 2510.32,1060.00 2510.32,1060.00
             2510.32,1060.00 2512.05,1067.00 2512.05,1067.00
             2512.05,1067.00 2512.05,1075.00 2512.05,1075.00
             2512.05,1075.00 2514.00,1084.00 2514.00,1084.00
             2514.00,1084.00 2514.00,1093.00 2514.00,1093.00
             2514.00,1093.00 2517.00,1112.00 2517.00,1112.00
             2517.00,1112.00 2517.00,1121.00 2517.00,1121.00
             2517.00,1121.00 2519.00,1131.00 2519.00,1131.00
             2519.00,1131.00 2519.00,1142.00 2519.00,1142.00
             2519.00,1142.00 2521.00,1151.00 2521.00,1151.00
             2521.00,1151.00 2521.00,1162.00 2521.00,1162.00
             2521.00,1162.00 2522.96,1172.00 2522.96,1172.00
             2522.96,1172.00 2522.96,1181.00 2522.96,1181.00
             2522.96,1181.00 2525.00,1193.00 2525.00,1193.00
             2525.00,1193.00 2525.00,1203.00 2525.00,1203.00
             2525.00,1203.00 2528.00,1233.00 2528.00,1233.00
             2528.00,1233.00 2528.00,1301.00 2528.00,1301.00
             2528.00,1301.00 2526.09,1323.00 2526.09,1323.00
             2526.09,1323.00 2525.00,1347.00 2525.00,1347.00
             2525.00,1347.00 2523.00,1372.00 2523.00,1372.00
             2523.00,1372.00 2521.00,1400.00 2521.00,1400.00
             2521.00,1400.00 2519.00,1414.00 2519.00,1414.00
             2519.00,1414.00 2519.00,1423.00 2519.00,1423.00
             2519.00,1423.00 2517.29,1432.00 2517.29,1432.00
             2517.29,1432.00 2512.32,1466.00 2512.32,1466.00
             2512.32,1466.00 2511.68,1473.00 2511.68,1473.00
             2511.68,1473.00 2507.68,1497.00 2507.68,1497.00
             2507.68,1497.00 2503.51,1516.00 2503.51,1516.00
             2503.51,1516.00 2496.49,1550.00 2496.49,1550.00
             2496.49,1550.00 2479.86,1611.00 2479.86,1611.00
             2472.00,1639.40 2464.59,1668.30 2454.47,1696.00
             2393.58,1862.72 2312.59,1997.68 2193.51,2129.72
             2153.74,2173.82 2112.66,2217.12 2067.00,2255.25
             2047.94,2271.16 2022.44,2288.62 1998.00,2294.41
             1998.00,2294.41 1991.00,2295.46 1991.00,2295.46
             1985.92,2296.38 1985.65,2296.93 1980.00,2297.00
             1969.99,2297.11 1971.58,2296.42 1963.00,2295.29
             1963.00,2295.29 1955.00,2294.49 1955.00,2294.49
             1935.34,2290.51 1914.89,2279.99 1898.00,2269.42
             1883.81,2260.54 1858.85,2242.29 1847.00,2230.96
             1847.00,2230.96 1827.84,2210.00 1827.84,2210.00
             1827.84,2210.00 1784.17,2161.00 1784.17,2161.00
             1784.17,2161.00 1772.82,2147.91 1772.82,2147.91
             1772.82,2147.91 1744.71,2116.00 1744.71,2116.00
             1744.71,2116.00 1726.08,2095.00 1726.08,2095.00
             1726.08,2095.00 1684.00,2042.00 1684.00,2042.00
             1684.00,2042.00 1619.53,1960.00 1619.53,1960.00
             1563.56,1885.38 1510.55,1809.00 1462.55,1729.00
             1432.65,1679.16 1403.12,1628.46 1378.02,1576.00
             1378.02,1576.00 1335.98,1487.00 1335.98,1487.00
             1335.98,1487.00 1315.54,1444.00 1315.54,1444.00
             1315.54,1444.00 1291.08,1387.00 1291.08,1387.00
             1291.08,1387.00 1270.99,1340.00 1270.99,1340.00
             1268.56,1334.16 1265.56,1324.02 1260.00,1321.00 Z
           M 1262.00,728.00
           C 1266.40,731.76 1265.87,733.63 1267.50,739.00
             1267.50,739.00 1273.41,761.00 1273.41,761.00
             1273.41,761.00 1295.40,842.00 1295.40,842.00
             1295.40,842.00 1331.98,960.00 1331.98,960.00
             1331.98,960.00 1385.12,1122.00 1385.12,1122.00
             1385.12,1122.00 1390.50,1139.00 1390.50,1139.00
             1390.50,1139.00 1438.33,1276.00 1438.33,1276.00
             1450.26,1310.37 1462.14,1344.70 1476.86,1378.00
             1527.51,1492.58 1582.36,1589.44 1649.37,1695.00
             1649.37,1695.00 1657.62,1707.00 1657.62,1707.00
             1694.23,1763.55 1733.13,1818.88 1774.58,1872.00
             1815.06,1923.88 1856.72,1975.15 1900.83,2024.00
             1900.83,2024.00 1915.09,2040.00 1915.09,2040.00
             1915.09,2040.00 1930.26,2055.58 1930.26,2055.58
             1936.76,2062.88 1949.29,2077.24 1957.00,2082.16
             1961.36,2084.94 1967.00,2085.80 1972.00,2084.36
             1981.66,2081.59 1998.78,2063.56 2007.00,2056.42
             2020.54,2044.67 2033.03,2032.05 2045.33,2019.04
             2045.33,2019.04 2090.75,1968.99 2090.75,1968.99
             2090.75,1968.99 2121.28,1930.99 2121.28,1930.99
             2138.53,1909.55 2153.89,1886.72 2169.34,1864.00
             2233.44,1769.79 2282.90,1661.10 2312.42,1551.00
             2312.42,1551.00 2328.51,1481.00 2328.51,1481.00
             2328.51,1481.00 2334.68,1450.00 2334.68,1450.00
             2334.68,1450.00 2335.32,1443.00 2335.32,1443.00
             2335.32,1443.00 2336.82,1436.00 2336.82,1436.00
             2336.82,1436.00 2337.32,1429.00 2337.32,1429.00
             2337.32,1429.00 2341.72,1401.00 2341.72,1401.00
             2341.72,1401.00 2342.30,1393.00 2342.30,1393.00
             2342.30,1393.00 2344.00,1385.00 2344.00,1385.00
             2344.00,1385.00 2344.00,1376.00 2344.00,1376.00
             2344.00,1376.00 2345.96,1366.00 2345.96,1366.00
             2345.96,1366.00 2345.96,1356.00 2345.96,1356.00
             2345.96,1356.00 2348.00,1339.00 2348.00,1339.00
             2348.00,1339.00 2348.00,1329.00 2348.00,1329.00
             2348.08,1322.80 2349.02,1320.62 2349.71,1315.00
             2349.71,1315.00 2351.00,1295.00 2351.00,1295.00
             2351.00,1295.00 2351.00,1264.00 2351.00,1264.00
             2351.00,1264.00 2350.00,1247.00 2350.00,1247.00
             2350.00,1247.00 2350.00,1225.00 2350.00,1225.00
             2350.00,1225.00 2348.08,1206.00 2348.08,1206.00
             2348.08,1206.00 2348.08,1194.00 2348.08,1194.00
             2348.08,1194.00 2346.00,1168.00 2346.00,1168.00
             2346.00,1168.00 2344.00,1153.00 2344.00,1153.00
             2344.00,1153.00 2344.00,1144.00 2344.00,1144.00
             2344.00,1144.00 2342.29,1135.00 2342.29,1135.00
             2342.29,1135.00 2337.30,1100.00 2337.30,1100.00
             2337.30,1100.00 2334.68,1080.00 2334.68,1080.00
             2334.68,1080.00 2328.51,1050.00 2328.51,1050.00
             2328.51,1050.00 2323.64,1025.00 2323.64,1025.00
             2323.64,1025.00 2317.58,1001.00 2317.58,1001.00
             2317.58,1001.00 2310.52,973.00 2310.52,973.00
             2297.33,925.86 2277.01,869.48 2256.69,825.00
             2209.71,722.14 2148.37,626.06 2072.68,541.91
             2072.68,541.91 2045.04,513.00 2045.04,513.00
             2045.04,513.00 2036.96,504.00 2036.96,504.00
             2036.96,504.00 2012.91,480.82 2012.91,480.82
             2012.91,480.82 1988.09,457.32 1988.09,457.32
             1962.20,434.08 1934.22,412.56 1906.00,392.26
             1797.18,313.98 1674.22,255.99 1545.00,220.42
             1545.00,220.42 1521.00,214.42 1521.00,214.42
             1521.00,214.42 1462.00,201.54 1462.00,201.54
             1462.00,201.54 1428.00,195.06 1428.00,195.06
             1428.00,195.06 1421.00,195.06 1421.00,195.06
             1421.00,195.06 1413.00,193.01 1413.00,193.01
             1413.00,193.01 1405.00,193.01 1405.00,193.01
             1405.00,193.01 1395.00,191.00 1395.00,191.00
             1395.00,191.00 1386.00,191.00 1386.00,191.00
             1386.00,191.00 1356.00,188.00 1356.00,188.00
             1356.00,188.00 1332.00,185.92 1332.00,185.92
             1332.00,185.92 1320.00,185.92 1320.00,185.92
             1312.69,185.12 1311.76,184.01 1303.00,184.00
             1303.00,184.00 1226.00,184.00 1226.00,184.00
             1226.00,184.00 1199.00,186.00 1199.00,186.00
             1199.00,186.00 1172.00,187.83 1172.00,187.83
             1172.00,187.83 1154.00,189.16 1154.00,189.16
             1154.00,189.16 1143.00,191.00 1143.00,191.00
             1143.00,191.00 1134.00,191.00 1134.00,191.00
             1134.00,191.00 1125.00,193.01 1125.00,193.01
             1125.00,193.01 1117.00,193.01 1117.00,193.01
             1117.00,193.01 1109.00,194.82 1109.00,194.82
             1109.00,194.82 1101.00,195.32 1101.00,195.32
             1060.78,201.84 1020.46,209.30 981.00,219.75
             981.00,219.75 968.00,223.73 968.00,223.73
             842.45,259.39 718.61,318.81 614.00,397.11
             591.17,414.19 568.55,431.58 547.00,450.29
             467.15,519.63 393.86,604.07 338.06,694.00
             267.23,808.17 218.62,933.15 193.37,1065.00
             193.37,1065.00 190.68,1083.00 190.68,1083.00
             190.68,1083.00 184.30,1122.00 184.30,1122.00
             184.30,1122.00 183.70,1131.00 183.70,1131.00
             183.70,1131.00 182.00,1139.00 182.00,1139.00
             182.00,1139.00 182.00,1148.00 182.00,1148.00
             182.00,1148.00 180.00,1162.00 180.00,1162.00
             180.00,1162.00 178.17,1182.00 178.17,1182.00
             178.17,1182.00 177.00,1205.00 177.00,1205.00
             177.00,1205.00 175.00,1234.00 175.00,1234.00
             175.00,1234.00 175.00,1301.00 175.00,1301.00
             175.00,1301.00 176.83,1320.00 176.83,1320.00
             176.83,1320.00 178.17,1340.00 178.17,1340.00
             178.17,1340.00 180.08,1356.00 180.08,1356.00
             180.08,1356.00 180.08,1367.00 180.08,1367.00
             180.08,1367.00 182.00,1377.00 182.00,1377.00
             182.00,1377.00 182.00,1388.00 182.00,1388.00
             182.00,1388.00 184.00,1397.00 184.00,1397.00
             184.00,1397.00 184.00,1405.00 184.00,1405.00
             184.00,1405.00 185.70,1413.00 185.70,1413.00
             185.70,1413.00 188.56,1433.00 188.56,1433.00
             188.56,1433.00 193.37,1464.00 193.37,1464.00
             193.37,1464.00 203.64,1512.00 203.64,1512.00
             203.64,1512.00 223.45,1586.00 223.45,1586.00
             260.51,1711.89 331.14,1844.22 414.92,1945.00
             447.82,1984.57 481.31,2023.18 520.00,2057.28
             529.05,2065.27 535.71,2073.11 546.00,2080.23
             552.52,2084.74 558.38,2087.24 566.00,2083.82
             575.87,2079.39 590.90,2061.68 598.42,2053.00
             598.42,2053.00 644.42,2002.00 644.42,2002.00
             702.31,1934.59 758.73,1865.85 809.72,1793.00
             875.35,1699.24 936.87,1602.80 989.31,1501.00
             989.31,1501.00 1034.93,1408.00 1034.93,1408.00
             1049.89,1374.75 1064.44,1341.09 1077.38,1307.00
             1077.38,1307.00 1120.50,1186.00 1120.50,1186.00
             1120.50,1186.00 1173.86,1027.00 1173.86,1027.00
             1173.86,1027.00 1199.44,947.00 1199.44,947.00
             1199.44,947.00 1235.41,823.00 1235.41,823.00
             1235.41,823.00 1241.42,803.00 1241.42,803.00
             1241.42,803.00 1255.58,750.00 1255.58,750.00
             1255.58,750.00 1262.00,728.00 1262.00,728.00 Z
           M 1261.18,1572.03
           C 1267.99,1569.83 1270.18,1574.68 1272.98,1580.00
             1272.98,1580.00 1286.79,1612.00 1286.79,1612.00
             1286.79,1612.00 1326.98,1698.00 1326.98,1698.00
             1326.98,1698.00 1351.06,1749.00 1351.06,1749.00
             1351.06,1749.00 1384.74,1816.00 1384.74,1816.00
             1384.74,1816.00 1392.17,1831.00 1392.17,1831.00
             1417.74,1877.49 1446.53,1922.00 1476.12,1966.00
             1500.07,2001.62 1524.64,2037.26 1551.21,2071.00
             1551.21,2071.00 1596.39,2126.00 1596.39,2126.00
             1596.39,2126.00 1631.09,2168.00 1631.09,2168.00
             1631.09,2168.00 1660.99,2200.00 1660.99,2200.00
             1663.48,2203.39 1667.80,2208.93 1668.59,2213.00
             1669.51,2217.70 1666.77,2222.25 1664.25,2226.00
             1658.20,2235.01 1651.78,2239.90 1644.00,2247.00
             1614.57,2273.87 1584.09,2299.49 1542.00,2299.00
             1535.43,2298.92 1535.59,2298.17 1530.00,2297.29
             1497.06,2292.16 1478.79,2268.52 1457.95,2245.00
             1417.74,2199.63 1358.07,2112.22 1322.19,2060.00
             1322.19,2060.00 1282.42,2000.00 1282.42,2000.00
             1279.20,1994.85 1270.83,1980.13 1265.00,1978.96
             1261.87,1978.34 1259.14,1980.96 1257.18,1983.04
             1253.62,1986.83 1249.26,1994.42 1246.31,1999.00
             1246.31,1999.00 1200.28,2068.00 1200.28,2068.00
             1158.79,2127.38 1117.53,2187.34 1071.08,2243.00
             1050.21,2268.01 1029.98,2292.00 996.00,2297.29
             990.41,2298.17 990.57,2298.92 984.00,2299.00
             975.14,2299.10 976.13,2298.72 968.00,2297.44
             968.00,2297.44 961.00,2296.63 961.00,2296.63
             931.71,2290.97 907.49,2269.53 885.83,2250.49
             877.51,2243.18 859.80,2229.50 859.05,2218.00
             858.46,2208.75 863.13,2204.43 869.00,2198.00
             869.00,2198.00 890.68,2175.17 890.68,2175.17
             890.68,2175.17 928.46,2129.00 928.46,2129.00
             928.46,2129.00 975.20,2071.00 975.20,2071.00
             1019.27,2015.70 1059.05,1957.01 1096.42,1897.00
             1096.42,1897.00 1127.35,1846.00 1127.35,1846.00
             1127.35,1846.00 1155.25,1792.00 1155.25,1792.00
             1155.25,1792.00 1182.00,1739.00 1182.00,1739.00
             1182.00,1739.00 1203.53,1693.00 1203.53,1693.00
             1203.53,1693.00 1236.92,1622.00 1236.92,1622.00
             1236.92,1622.00 1251.08,1588.00 1251.08,1588.00
             1253.70,1582.35 1256.25,1575.99 1261.18,1572.03 Z" />
</svg>
